/* XPM */
static char* ja_xpm[] = {
,   "16 16        2 1"

,   "       c    none"
,   "X      c #dadada"

,   "                "
,   "                "
,   "  XXXXXXXXXXXX  "
,   "  X          X  "
,   "  X          X  "
,   "  X      X   X  "
,   "  X      X   X  "
,   "  X      X   X  "
,   "  X   X  X   X  "
,   "  X   X  X   X  "
,   "  X    XX    X  "
,   "  X          X  "
,   "  X          X  "
,   "  XXXXXXXXXXXX  "
,   "                "
,   "                "
};
