/* XPM */
static char* mem_xpm[] = {
,   "16 16        3 1"

,   "       c    none"
,   "X      c #dadada"
,   "O      c    none"

,   "                "
,   "                "
,   "   XX  XX  XX   "
,   "                "
,   "  XXXXXXXXXXXX  "
,   "  X          X  "
,   "  X XXOOOOOO X  "
,   "  X XXOOOOOO X  "
,   "  X XXOOOOOO X  "
,   "  X XXOOOOOO X  "
,   "  X          X  "
,   "  XXXXXXXXXXXX  "
,   "                "
,   "   XX  XX  XX   "
,   "                "
,   "                "
};
