/* XPM */
static char* mem_xpm[] = {
,   "16 16        3 1"

,   "       c    none"
,   "X      c #87ff87"
,   "O      c    none"

,   "                "
,   "                "
,   "   XX  XX  XX   "
,   "                "
,   "  XXXXXXXXXXXX  "
,   "  X          X  "
,   "  X XXXXXXOO X  "
,   "  X XXXXXXOO X  "
,   "  X XXXXXXOO X  "
,   "  X XXXXXXOO X  "
,   "  X          X  "
,   "  XXXXXXXXXXXX  "
,   "                "
,   "   XX  XX  XX   "
,   "                "
,   "                "
};
