/* XPM */
static char* mem_xpm[] = {
,   "16 16        3 1"

,   "       c    none"
,   "X      c #ff005f"
,   "O      c    none"

,   "                "
,   "                "
,   "   XX  XX  XX   "
,   "                "
,   "  XXXXXXXXXXXX  "
,   "  X          X  "
,   "  X XXXXXXXX X  "
,   "  X XXXXXXXX X  "
,   "  X XXXXXXXX X  "
,   "  X XXXXXXXX X  "
,   "  X          X  "
,   "  XXXXXXXXXXXX  "
,   "                "
,   "   XX  XX  XX   "
,   "                "
,   "                "
};
