/* XPM */
static char* float_xpm[] = {
,   "40 40        2 1"

,   "       c #02aedc"
,   "X      c    none"

,   "                                        "
,   "                                        "
,   "                                        "
,   "                                        "
,   "                                        "
,   "                                        "
,   "                                        "
,   "                                        "
,   "                                        "
,   "                                        "
,   "                                        "
,   "                                        "
,   "                                        "
,   "                                        "
,   "              XX XXXXXX XX              "
,   "              XX XXXXXX XX              "
,   "                                        "
,   "              XX        XX              "
,   "              XX        XX              "
,   "              XX        XX              "
,   "              XX        XX              "
,   "              XX        XX              "
,   "              XX        XX              "
,   "                                        "
,   "              XX XXXXXX XX              "
,   "              XX XXXXXX XX              "
,   "                                        "
,   "                                        "
,   "                                        "
,   "                                        "
,   "                                        "
,   "                                        "
,   "                                        "
,   "                                        "
,   "                                        "
,   "                                        "
,   "                                        "
,   "                                        "
,   "                                        "
,   "                                        "
};
