/* XPM */
static char* mirrortall_xpm[] = {
,   "40 40        2 1"

,   "       c #02aedc"
,   "X      c    none"

,   "                                        "
,   "                                        "
,   "                                        "
,   "                                        "
,   "                                        "
,   "                                        "
,   "                                        "
,   "                                        "
,   "                                        "
,   "                                        "
,   "                                        "
,   "                                        "
,   "                                        "
,   "                                        "
,   "              XXXXXXXXXXXX              "
,   "              XXXXXXXXXXXX              "
,   "              XXXXXXXXXXXX              "
,   "              XXXXXXXXXXXX              "
,   "              XXXXXXXXXXXX              "
,   "                                        "
,   "                                        "
,   "              XXXXXXXXXXXX              "
,   "              X          X              "
,   "              X          X              "
,   "              X          X              "
,   "              XXXXXXXXXXXX              "
,   "                                        "
,   "                                        "
,   "                                        "
,   "                                        "
,   "                                        "
,   "                                        "
,   "                                        "
,   "                                        "
,   "                                        "
,   "                                        "
,   "                                        "
,   "                                        "
,   "                                        "
,   "                                        "
};
