/* XPM */
static char* tall_xpm[] = {
,   "40 40        2 1"

,   "       c #02aedc"
,   "X      c    none"

,   "                                        "
,   "                                        "
,   "                                        "
,   "                                        "
,   "                                        "
,   "                                        "
,   "                                        "
,   "                                        "
,   "                                        "
,   "                                        "
,   "                                        "
,   "                                        "
,   "                                        "
,   "                                        "
,   "              XXXXX  XXXXX              "
,   "              XXXXX  X   X              "
,   "              XXXXX  X   X              "
,   "              XXXXX  X   X              "
,   "              XXXXX  X   X              "
,   "              XXXXX  X   X              "
,   "              XXXXX  X   X              "
,   "              XXXXX  X   X              "
,   "              XXXXX  X   X              "
,   "              XXXXX  X   X              "
,   "              XXXXX  X   X              "
,   "              XXXXX  XXXXX              "
,   "                                        "
,   "                                        "
,   "                                        "
,   "                                        "
,   "                                        "
,   "                                        "
,   "                                        "
,   "                                        "
,   "                                        "
,   "                                        "
,   "                                        "
,   "                                        "
,   "                                        "
,   "                                        "
};
