/* XPM */
static char* up_xpm[] = {
,   "16 16        3 1"

,   "       c    none"
,   "X      c #dadada"
,   "O      c #585858"

,   "                "
,   "                "
,   "     X          "
,   "    XXX         "
,   "   X X X        "
,   "  X  X  X       "
,   "     X          "
,   "     X OOOOOOO  "
,   "     X          "
,   "     X OOOOOOO  "
,   "     X          "
,   "     X OOOOOOO  "
,   "     X          "
,   "     X OOOOOOO  "
,   "                "
,   "                "
};
