/* XPM */
static char* cpu_xpm[] = {
,   "16 16        3 1"

,   "       c    none"
,   "X      c #87ff87"
,   "O      c    none"

,   "                "
,   "                "
,   "  XXX  XX  XXX  "
,   "  X          X  "
,   "  X OOOOOOOO X  "
,   "    XXXXXXXX    "
,   "    XXXXXXXX    "
,   "  X XXXXXXXX X  "
,   "  X XXXXXXXX X  "
,   "    XXXXXXXX    "
,   "    XXXXXXXX    "
,   "  X XXXXXXXX X  "
,   "  X          X  "
,   "  XXX  XX  XXX  "
,   "                "
,   "                "
};
