/* XPM */
static char* dev_xpm[] = {
,   "40 40        2 1"

,   "       c    none"
,   "X      c #02aedc"

,   "                                        "
,   "                                        "
,   "                                        "
,   "                                        "
,   "                                        "
,   "                                        "
,   "                                        "
,   "                                        "
,   "                                        "
,   "                                        "
,   "                                        "
,   "                                        "
,   "                                        "
,   "                                        "
,   "             XXXXXXXXXXXXXX             "
,   "             X            X             "
,   "             X            X             "
,   "             X  X         X             "
,   "             X   X        X             "
,   "             X    X       X             "
,   "             X   X        X             "
,   "             X  X         X             "
,   "             X            X             "
,   "             X            X             "
,   "             X            X             "
,   "             XXXXXXXXXXXXXX             "
,   "                                        "
,   "                                        "
,   "                                        "
,   "                                        "
,   "                                        "
,   "                                        "
,   "                                        "
,   "                                        "
,   "                                        "
,   "                                        "
,   "                                        "
,   "                                        "
,   "                                        "
,   "                                        "
};
