/* XPM */
static char* web_xpm[] = {
,   "40 40        2 1"

,   "       c    none"
,   "X      c #ff005f"

,   "                                        "
,   "                                        "
,   "                                        "
,   "                                        "
,   "                                        "
,   "                                        "
,   "                                        "
,   "                                        "
,   "                                        "
,   "                                        "
,   "                                        "
,   "                                        "
,   "                                        "
,   "                                        "
,   "             XXXXXXXXXXXXXX             "
,   "             X    XXXXXXXXX             "
,   "             X            X             "
,   "             X XXXXX XXXX X             "
,   "             X X   X      X             "
,   "             X X   X XXXX X             "
,   "             X X   X      X             "
,   "             X XXXXX XXXX X             "
,   "             X            X             "
,   "             X XXXXXXXXXX X             "
,   "             X            X             "
,   "             XXXXXXXXXXXXXX             "
,   "                                        "
,   "                                        "
,   "                                        "
,   "                                        "
,   "                                        "
,   "                                        "
,   "                                        "
,   "                                        "
,   "                                        "
,   "                                        "
,   "                                        "
,   "                                        "
,   "                                        "
,   "                                        "
};
